<svg width="194" height="41" viewBox="0 0 194 41" xmlns="http://www.w3.org/2000/svg"><path d="M60.907 15.024h-2.128v5.306h2.128c1.181 0 2.128-.848 2.128-1.91v-1.485c0-1.062-.947-1.91-2.128-1.91m-3.545-2.547h3.545c2.747 0 4.963 1.989 4.963 4.457v1.484c0 2.47-2.216 4.458-4.963 4.458h-2.128v6.154c0 .717-.647 1.273-1.417 1.273-.797 0-1.418-.556-1.418-1.273v-15.28c0-.69.621-1.273 1.418-1.273M74.956 25.9a2.012 2.012 0 0 0-.576-1.582L70 19.994a4.249 4.249 0 0 1-1.286-3.428 4.421 4.421 0 0 1 1.805-3.189c1.042-.765 2.41-1.056 3.698-.818 1.286.264 2.41 1.028 3.067 2.135.356.606.137 1.372-.493 1.741-.63.343-1.424.13-1.78-.476a2.118 2.118 0 0 0-1.314-.922 2.007 2.007 0 0 0-1.589.37 1.75 1.75 0 0 0-.768 1.371 1.753 1.753 0 0 0 .549 1.45l4.355 4.323c.958.95 1.45 2.242 1.341 3.533-.11 1.32-.794 2.506-1.862 3.296-1.095.792-2.465 1.081-3.808.844-1.34-.263-2.492-1.081-3.15-2.188a1.231 1.231 0 0 1 .466-1.74 1.372 1.372 0 0 1 1.809.475c.3.5.793.843 1.398.974.6.107 1.203-.025 1.697-.395.493-.343.766-.87.821-1.45m8.058 3.139V13.744c0-.684.62-1.266 1.353-1.266.761 0 1.354.582 1.354 1.266v15.295c0 .712-.593 1.265-1.354 1.265-.733 0-1.353-.553-1.353-1.265m8.121-3.163v-8.969c0-2.005 1.439-3.77 3.496-4.273 2.09-.527 4.26.316 5.33 2.058.397.606.171 1.371-.478 1.741a1.435 1.435 0 0 1-1.86-.475c-.451-.739-1.383-1.108-2.286-.871-.873.211-1.493.976-1.493 1.82v8.97c0 .87.62 1.608 1.493 1.846.903.211 1.835-.16 2.286-.898a1.433 1.433 0 0 1 1.86-.474c.65.37.875 1.134.479 1.74-1.072 1.741-3.24 2.585-5.33 2.058-2.058-.501-3.497-2.269-3.497-4.273m15.469-8.968v8.967c0 1.054.946 1.897 2.127 1.897 1.18 0 2.126-.843 2.126-1.897v-8.967c0-1.055-.947-1.899-2.126-1.899-1.18 0-2.127.844-2.127 1.9m-2.837 8.966v-8.967c0-2.452 2.216-4.43 4.964-4.43 2.746 0 4.962 1.978 4.962 4.43v8.967c0 2.45-2.216 4.43-4.962 4.43-2.748 0-4.964-1.98-4.964-4.43m14.438 3.165V13.747c0-.58.425-1.107 1.044-1.238.62-.132 1.27.157 1.524.712 0 0 2 3.928 3.298 6.512l3.271-6.512a1.37 1.37 0 0 1 1.52-.712c.62.131 1.073.658 1.073 1.238v15.291c0 .712-.621 1.265-1.354 1.265-.76 0-1.353-.553-1.353-1.265v-9.622c-.958 1.87-1.946 3.822-1.946 3.822a1.366 1.366 0 0 1-1.211.738c-.537 0-1.015-.29-1.241-.738 0 0-.988-1.951-1.917-3.822v9.622c0 .712-.621 1.265-1.354 1.265-.76 0-1.354-.553-1.354-1.265m18.461-16.56h5.486c.742 0 1.318.557 1.318 1.217 0 .684-.576 1.216-1.318 1.216h-4.169v4.564h3.621c.741 0 1.318.558 1.318 1.218 0 .683-.577 1.216-1.318 1.216h-3.62v5.07h4.168c.742 0 1.318.558 1.318 1.216 0 .686-.576 1.218-1.318 1.218h-5.486c-.714 0-1.317-.532-1.317-1.218v-14.5c0-.66.603-1.217 1.317-1.217m19.002 0c.753 0 1.337.583 1.337 1.273 0 .717-.584 1.273-1.337 1.273h-2.288V29.03c0 .718-.584 1.274-1.337 1.274-.727 0-1.339-.556-1.339-1.274V15.024h-2.287c-.726 0-1.338-.556-1.338-1.273 0-.69.612-1.273 1.338-1.273h7.25zm7.779 7.852h2.125c1.18 0 2.124-.848 2.124-1.91v-1.485c0-1.062-.944-1.91-2.124-1.91h-2.125v5.305zm4.426 2.043l2.568 6.208c.293.663-.09 1.405-.826 1.644-.74.239-1.536-.08-1.83-.743l-2.745-6.605h-1.593v6.154c0 .717-.618 1.273-1.416 1.273-.767 0-1.417-.556-1.417-1.273v-15.28c0-.69.65-1.273 1.417-1.273h3.54c2.746 0 4.957 1.989 4.957 4.457v1.484c0 1.726-1.062 3.212-2.655 3.954zm14.547 6.109l4.117-7.355-3.819-6.802c-.356-.633-.059-1.397.62-1.713.711-.316 1.571-.053 1.926.58l2.872 5.114 2.872-5.115c.355-.632 1.214-.895 1.895-.579.712.316 1.006 1.08.65 1.713l-3.82 6.802 4.116 7.355c.356.606.06 1.37-.649 1.688-.682.316-1.54.052-1.897-.554l-3.167-5.668-3.168 5.668c-.354.606-1.214.87-1.925.554-.68-.317-.977-1.082-.622-1.688m-6.468.557V13.744c0-.684.622-1.266 1.354-1.266.76 0 1.353.582 1.353 1.266v15.295c0 .712-.592 1.265-1.353 1.265-.732 0-1.354-.553-1.354-1.265M18.893 4.919c-.159-1.34-1.406-2.363-2.77-2.268l-12.97.89C1.79 3.636.672 4.819.672 6.168v12.757c0 1.351 1.102 2.252 2.445 2.002l3.5-.649c.278-1.65.76-2.707.76-2.707 2.316-5.751 8.34-7.631 12.042-8.249l-.525-4.402zm11.061 6.991c2.206 2.66.975 3.174 2.684 5.852.26.408.746.766 1.333 1.103h7.312c1.4 0 2.444-1.127 2.321-2.502l-1.24-13.86C42.245 1.126 40.998 0 39.598 0H22.209c-1.4 0-2.39 1.12-2.198 2.49l.92 6.628c.956-.098 1.55-.098 1.55-.098l.171.008c.825-.036 4.862-.052 7.302 2.883zm16.293 26.567l-.903-16.179c-.117-1.446-1.411-2.536-2.875-2.423l-5.979.234c.965.479 1.784.98 2.003 1.59.208.573.037 1.104-.248 1.59-.35.595-.873 1.112-1.086 1.542a.864.864 0 0 0-.094.28c-.087.785 1.664 5.426.831 7.056-.137.27-.373.526-.673.769-1.537 1.236-4.81 2.107-5.636 2.289a.96.96 0 0 0-.359.204c-.558.45-1.393 1.604-2.25 3.206a19.03 19.03 0 0 0-.718 1.928l15.534.4c1.468.077 2.57-1.04 2.453-2.486m-33.031-4.71a17.6 17.6 0 0 1-3.083-2.443C6.764 27.93 6.25 24.155 6.477 21.42l-3.99.843C1.12 22.552 0 23.917 0 25.3v12.003c0 1.383 1.143 2.563 2.543 2.626l10.152.22c.208-.432.406-.94.568-1.56.468-1.79.635-3.54-.047-4.822" fill="#FFF" fill-rule="evenodd"/></svg>